<?xml version="1.0" encoding="UTF-8"?>
<svg version="1.1" xmlns="http://www.w3.org/2000/svg" width="2000" height="2000">
<path d="M0 0 C660 0 1320 0 2000 0 C2000 660 2000 1320 2000 2000 C1340 2000 680 2000 0 2000 C0 1340 0 680 0 0 Z " fill="#00343D" transform="translate(0,0)"/>
<path d="M0 0 C161.04 0 322.08 0 488 0 C488 88 488 88 477 101 C473.65451777 105.08878989 473.65451777 105.08878989 470.31640625 109.18359375 C467.72212734 112.33785192 465.08393735 115.4520298 462.4375 118.5625 C458.56453634 123.1164243 454.79377305 127.73495053 451.08203125 132.421875 C448.66915908 135.40967168 446.18203921 138.33056197 443.6875 141.25 C439.88255834 145.7063918 436.21201588 150.24171687 432.625 154.875 C428.15015437 160.64753471 423.44176257 166.17759172 418.62988281 171.67089844 C414.96987855 175.85594814 411.45092987 180.12287526 408.01171875 184.4921875 C405.62906911 187.46240316 403.16142373 190.35600849 400.6875 193.25 C396.88245198 197.70629157 393.21197043 202.24169421 389.625 206.875 C385.21992069 212.55846261 380.58085013 217.99233412 375.83642578 223.39404297 C372.25177413 227.49670173 368.82898453 231.68796372 365.5 236 C361.07104605 241.73608508 356.40392816 247.22091099 351.62939453 252.67138672 C347.96962142 256.85632906 344.45078674 261.12305709 341.01171875 265.4921875 C338.62906911 268.46240316 336.16142373 271.35600849 333.6875 274.25 C329.88245198 278.70629157 326.21197043 283.24169421 322.625 287.875 C318.21992069 293.55846261 313.58085013 298.99233412 308.83642578 304.39404297 C305.25177413 308.49670173 301.82898453 312.68796372 298.5 317 C294.07104605 322.73608508 289.40392816 328.22091099 284.62939453 333.67138672 C280.96962142 337.85632906 277.45078674 342.12305709 274.01171875 346.4921875 C271.62906911 349.46240316 269.16142373 352.35600849 266.6875 355.25 C262.88245198 359.70629157 259.21197043 364.24169421 255.625 368.875 C251.21992069 374.55846261 246.58085013 379.99233412 241.83642578 385.39404297 C238.25177413 389.49670173 234.82898453 393.68796372 231.5 398 C227.07104605 403.73608508 222.40392816 409.22091099 217.62939453 414.67138672 C213.96962142 418.85632906 210.45078674 423.12305709 207.01171875 427.4921875 C204.62906725 430.46240548 202.16135243 433.35594569 199.6875 436.25 C194.99094372 441.75288785 190.50726749 447.3931591 186.09375 453.125 C181.52113107 458.85232068 176.73396989 464.40530831 172 470 C280.57 470.33 389.14 470.66 501 471 C501 506.97 501 542.94 501 580 C333.69 580 166.38 580 -6 580 C-6 492 -6 492 6 478 C9.36633663 473.89630559 9.36633663 473.89630559 12.71875 469.78125 C15.29842888 466.63616205 17.92631983 463.53520324 20.5625 460.4375 C23.76743856 456.6691525 26.92687889 452.87753727 30 449 C33.07312808 445.12245393 36.23273386 441.33100139 39.4375 437.5625 C43.50968486 432.77332742 47.52481607 427.94383037 51.49609375 423.0703125 C59.30665265 413.49293451 67.15890958 403.95247043 75.16308594 394.53613281 C79.5117715 389.4137745 83.76183759 384.21385447 88 379 C93.23789344 372.55626059 98.5338025 366.16983338 103.90917969 359.84082031 C108.3405996 354.61552812 112.67844842 349.31644115 117 344 C122.23789344 337.55626059 127.5338025 331.16983338 132.90917969 324.84082031 C137.3405996 319.61552812 141.67844842 314.31644115 146 309 C151.23789344 302.55626059 156.5338025 296.16983338 161.90917969 289.84082031 C166.3405996 284.61552812 170.67844842 279.31644115 175 274 C180.23789344 267.55626059 185.5338025 261.16983338 190.90917969 254.84082031 C195.3405996 249.61552812 199.67844842 244.31644115 204 239 C209.23789344 232.55626059 214.5338025 226.16983338 219.90917969 219.84082031 C224.3405996 214.61552812 228.67844842 209.31644115 233 204 C238.23789344 197.55626059 243.5338025 191.16983338 248.90917969 184.84082031 C253.3405996 179.61552812 257.67844842 174.31644115 262 169 C266.7797175 163.11991588 271.59473597 157.27559389 276.5 151.5 C280.54342094 146.73853646 284.53088429 141.93682073 288.4765625 137.09375 C291.70348055 133.13752849 294.94417859 129.19277805 298.1875 125.25 C298.76991455 124.54069336 299.3523291 123.83138672 299.95239258 123.10058594 C300.51853271 122.41254883 301.08467285 121.72451172 301.66796875 121.015625 C302.16578857 120.41008789 302.6636084 119.80455078 303.17651367 119.18066406 C305.75570603 116.09626908 308.38338763 113.05271443 311 110 C208.37 109.67 105.74 109.34 0 109 C0 73.03 0 37.06 0 0 Z " fill="#FEC1E7" transform="translate(238,716)"/>
<path d="M0 0 C42.57 0 85.14 0 129 0 C129.33 114.51 129.66 229.02 130 347 C140.8049318 336.9802955 140.8049318 336.9802955 151.26171875 326.70703125 C153.03030958 324.97023531 154.86469877 323.35884158 156.75 321.75 C160.34516715 318.6643841 163.67338096 315.36802709 167 312 C170.85120964 308.10103082 174.76421745 304.39175688 178.94140625 300.83984375 C182.07153162 298.04233133 184.98685658 295.03375494 187.93383789 292.04663086 C191.13385771 288.82001347 194.45072272 285.82069539 197.90625 282.875 C200.53985527 280.51654752 203.01826514 278.01554596 205.5 275.5 C209.16847581 271.78154495 212.93149229 268.26331805 216.90625 264.875 C219.53985556 262.51654726 222.01826218 260.0155432 224.5 257.5 C227.55337951 254.40508498 230.62323685 251.38065723 233.9375 248.5625 C237.47679074 245.54647196 240.73494745 242.30552422 244 239 C247.85121937 235.10104317 251.76421729 231.39175703 255.94140625 227.83984375 C259.07153162 225.04233133 261.98685658 222.03375494 264.93383789 219.04663086 C268.13385771 215.82001347 271.45072272 212.82069539 274.90625 209.875 C277.53985527 207.51654752 280.01826514 205.01554596 282.5 202.5 C286.16847581 198.78154495 289.93149229 195.26331805 293.90625 191.875 C296.53985298 189.51654957 299.01828881 187.01556809 301.5 184.5 C305.31923284 180.63833124 309.20077466 176.94849605 313.34375 173.4375 C315.0256473 172.07214366 315.0256473 172.07214366 316.21556568 170.43270397 C318.84250373 168.32356241 320.86944693 168.63108897 324.2071991 168.63923645 C325.50710281 168.63511246 326.80700653 168.63098846 328.14630127 168.6267395 C329.58996789 168.63735702 331.03363242 168.64826145 332.47729492 168.65942383 C333.99495934 168.66026989 335.51262499 168.65979536 337.0302887 168.65809631 C341.15405364 168.65723413 345.27755781 168.67489591 349.40126204 168.69581819 C353.70941461 168.71454782 358.01757289 168.71633249 362.32575989 168.71989441 C370.48555662 168.72922581 378.64523305 168.75385438 386.80497676 168.78394288 C396.09384901 168.81745284 405.38272694 168.83396432 414.67164457 168.84902918 C433.78116464 168.88040301 452.89057265 168.93318475 472 169 C471.0632119 170.09795632 470.12568787 171.19528476 469.18786621 172.2923584 C468.66586388 172.90350243 468.14386154 173.51464645 467.60604095 174.14431 C454.73770192 189.01295207 440.43948373 202.64940937 426.5 216.5 C422.72567076 220.25048901 418.95314908 224.00276455 415.18479919 227.75926208 C413.70084531 229.23684611 412.21386835 230.711337 410.72668457 232.18566895 C406.89109159 236.00737037 403.09286393 239.81174076 399.57226562 243.92773438 C395.2614816 248.95333538 390.54020939 253.57126231 385.84365845 258.23150635 C384.15007138 259.9121424 382.45979223 261.59604629 380.77026367 263.28076172 C376.57638982 267.46138011 372.37704601 271.6364898 368.17785645 275.81176758 C364.61792169 279.35185717 361.06012179 282.89406722 357.5050354 286.43902588 C355.85267468 288.08498106 354.19729535 289.72785645 352.54174805 291.37060547 C347.80385633 296.08565392 343.19479022 300.84293126 338.84762573 305.92529297 C334.64246974 310.64728106 330.07884709 315.04159797 325.59765625 319.5 C324.50884896 320.58693803 323.42026534 321.67410015 322.33189392 322.76147461 C319.49175111 325.59783223 316.6486164 328.43117164 313.80480957 331.26385498 C310.89342109 334.16494253 307.98492533 337.06892713 305.07617188 339.97265625 C299.3869133 345.65124818 293.69448501 351.32664916 288 357 C289.83592175 360.86745318 292.26995463 364.04980494 294.9375 367.375 C295.93629186 368.6327379 296.93498711 369.89055253 297.93359375 371.1484375 C298.44390137 371.7887793 298.95420898 372.42912109 299.47998047 373.08886719 C301.83383516 376.04838767 304.16642054 379.0244865 306.5 382 C307.41655148 383.16675716 308.3332185 384.33342357 309.25 385.5 C369.75 462.5 369.75 462.5 371.12475586 464.24975586 C372.04215009 465.4173041 372.95963067 466.58478449 373.87719727 467.75219727 C376.15844245 470.6548279 378.43821214 473.55859274 380.71484375 476.46484375 C384.91000342 481.81695098 389.1182858 487.15642325 393.38085938 492.45507812 C398.15236466 498.38671411 402.83538133 504.37336132 407.4375 510.4375 C412.27993016 516.81644958 417.25852791 523.06423312 422.33349609 529.25927734 C425.64575979 533.31005242 428.89033111 537.40118768 432.0625 541.5625 C435.58284562 546.17869514 439.17033813 550.72946911 442.8125 555.25 C447.10672048 560.58289974 451.2992456 565.98281081 455.4375 571.4375 C459.75555595 577.12589496 464.16377345 582.72374307 468.6875 588.25 C475.79230202 596.93021465 482.80289664 605.63912509 489 615 C468.72016844 615.30415598 448.44080182 615.53315439 428.15915966 615.67355824 C418.74115282 615.7404942 409.32456587 615.83168675 399.9074707 615.98071289 C391.69601969 616.11059729 383.48559713 616.19422774 375.2731474 616.22315043 C370.92706593 616.24005026 366.58392557 616.27953366 362.23879051 616.37449074 C358.14117912 616.46330584 354.04769366 616.48984609 349.94921112 616.47039986 C348.45231169 616.47395202 346.95526238 616.49949565 345.45919991 616.54967117 C334.49187283 616.8991927 334.49187283 616.8991927 330.31646562 613.71688628 C326.68121757 610.18442361 323.8456596 606.17667296 321 602 C319.9580999 600.67474196 318.90779297 599.3558372 317.8359375 598.0546875 C317.01332015 596.99657953 316.19292203 595.93674164 315.375 594.875 C311.461632 589.84869407 307.48373999 584.88536059 303.4375 579.96484375 C295.81925032 570.69841506 288.26775684 561.38435672 280.87890625 551.93383789 C277.45616413 547.56248229 273.96389473 543.25319163 270.4375 538.96484375 C262.81925032 529.69841506 255.26775684 520.38435672 247.87890625 510.93383789 C244.45616413 506.56248229 240.96389473 502.25319163 237.4375 497.96484375 C230.39446625 489.39807673 223.38221772 480.80851324 216.5625 472.0625 C211.19083312 465.17477384 205.63725314 458.44185895 200.06640625 451.71484375 C199.53805176 451.07401855 199.00969727 450.43319336 198.46533203 449.77294922 C197.18085838 448.21882598 195.88617225 446.67315495 194.58984375 445.12890625 C193 443 193 443 193 441 C188.91290281 443.218752 185.77258989 445.95728481 182.53881836 449.25 C182.01782059 449.77231201 181.49682281 450.29462402 180.96003723 450.83276367 C179.24864904 452.55061303 177.5443533 454.27532766 175.83984375 456 C174.64639103 457.19972821 173.45241831 458.39893934 172.25794983 459.59765625 C169.12018274 462.74870038 165.98803609 465.90526709 162.85748291 469.06347656 C157.8448037 474.11933968 152.82536643 479.16847089 147.80264473 484.21435547 C146.05204174 485.97515811 144.30490515 487.73934665 142.55809021 489.50390625 C141.48277273 490.58605366 140.40734427 491.66809081 139.33178711 492.75 C138.84908356 493.23944092 138.36638 493.72888184 137.86904907 494.2331543 C135.95675356 496.15185313 134.16595949 497.89400191 131.87634754 499.35637379 C129.81868223 500.83795662 129.81868223 500.83795662 129.49219131 503.14952374 C129.48666056 504.40638847 129.48666056 504.40638847 129.48101807 505.68864441 C129.46711155 506.64998134 129.45320503 507.61131826 129.43887711 508.60178661 C129.44390118 509.65898561 129.44892525 510.7161846 129.45410156 511.80541992 C129.44370724 512.93577069 129.43331291 514.06612146 129.42260361 515.23072529 C129.3934103 518.89745761 129.39153433 522.56363151 129.390625 526.23046875 C129.37663575 528.49110071 129.36086058 530.75172236 129.34326172 533.0123291 C129.290503 541.40394447 129.27236796 549.7957486 129.25 558.1875 C129.1675 576.935625 129.085 595.68375 129 615 C86.43 615 43.86 615 0 615 C0 412.05 0 209.1 0 0 Z " fill="#FEC1E7" transform="translate(1306,681)"/>
<path d="M0 0 C44.22 0 88.44 0 134 0 C151.19769022 41.27445652 151.19769022 41.27445652 158.25 58.375 C159.04746199 60.3073181 159.84499015 62.2396089 160.64257812 64.171875 C162.2821505 68.14410284 163.92145252 72.11644208 165.56054688 76.08886719 C169.14358189 84.77188171 172.73016305 93.4534314 176.31652832 102.1350708 C178.29450236 106.92331852 180.27223898 111.71166429 182.25 116.5 C183.04166553 118.41666713 183.8333322 120.3333338 184.625 122.25 C208.37499998 179.74999994 208.37499998 179.74999994 209.56242371 182.62481689 C210.35434317 184.54209454 211.14626416 186.45937155 211.93818665 188.37664795 C213.91349782 193.15896158 215.88878299 197.94128594 217.86401367 202.72363281 C221.47240076 211.46003661 225.08100356 220.19635105 228.6905365 228.93228149 C238.47586089 252.61515262 248.25126807 276.30204008 258 300 C261.29908717 296.21543482 262.88928165 291.83012385 264.74609375 287.234375 C265.10884399 286.35035004 265.47159424 285.46632507 265.84533691 284.55551147 C266.63312374 282.63392453 267.41828752 280.71126061 268.20114136 278.78765869 C269.89169263 274.63407606 271.59502074 270.48577105 273.29750061 266.33706665 C274.18970289 264.16250884 275.08124323 261.98767934 275.97215271 259.81259155 C280.58101273 248.56405828 285.25513784 237.34308959 289.9375 226.125 C290.77342728 224.12079791 291.60928304 222.11656598 292.44506836 220.11230469 C294.12435704 216.08547948 295.80399656 212.05880088 297.48388672 208.03222656 C301.24258702 199.02206051 304.9966187 190.00994922 308.75100708 180.99798584 C310.8338139 175.99857772 312.91692219 170.99929521 315 166 C315.83333478 164.0000006 316.66666811 162.0000006 317.5 160 C325.83333333 140 334.16666667 120 342.5 100 C342.91241943 99.01019135 343.32483887 98.02038269 343.74975586 97.00057983 C344.58389722 94.99864465 345.41804436 92.99671187 346.25219727 90.99478149 C348.32321504 86.02440952 350.3941354 81.05399699 352.46484375 76.08349609 C356.36152617 66.73024467 360.2592216 57.37741885 364.16015625 48.02593994 C365.99808547 43.61982141 367.83548856 39.21348357 369.67285156 34.80712891 C370.54693766 32.71131613 371.42128013 30.61561026 372.29589844 28.52001953 C373.51042005 25.60997299 374.72404858 22.69955543 375.9375 19.7890625 C376.29078369 18.94324615 376.64406738 18.09742981 377.00805664 17.22598267 C379.39257756 11.50334665 381.69696364 5.75759089 384 0 C425.25 0 466.5 0 509 0 C499.80203631 22.99490923 499.80203631 22.99490923 495.06616211 33.94580078 C492.76732668 39.26860811 490.47688973 44.59499892 488.1875 49.921875 C487.77358505 50.88437164 487.3596701 51.84686829 486.93321228 52.83853149 C481.73927268 64.92177474 476.58877819 77.02352377 471.4375 89.125 C470.9479483 90.27484375 470.45839661 91.4246875 469.95401001 92.609375 C460.95965728 113.73546856 451.97705881 134.86655304 443 156 C440.29197406 162.37513063 437.58373259 168.75016959 434.875 175.125 C434.53349915 175.92871033 434.19199829 176.73242065 433.84014893 177.56048584 C426.90616488 193.87805384 419.95758389 210.1893973 413.00866699 226.50061035 C406.7083639 241.28963392 400.41144192 256.08007863 394.125 270.875 C393.78301575 271.67983826 393.44103149 272.48467651 393.08868408 273.31390381 C390.72546905 278.8757998 388.36267741 284.43787561 386 290 C383.29197406 296.37513063 380.58373259 302.75016959 377.875 309.125 C377.53349915 309.92871033 377.19199829 310.73242065 376.84014893 311.56048584 C369.90516504 327.88040672 362.95563542 344.19412503 356.00564575 360.50765991 C349.76845232 375.14833341 343.53542527 389.79075616 337.3125 404.4375 C336.64055519 406.01880375 335.96859883 407.60010258 335.29663086 409.18139648 C332.36206928 416.08723326 329.42764129 422.99312654 326.49414062 429.89941406 C324.28428869 435.10178941 322.07337625 440.30371317 319.86190796 445.50540161 C319.01669454 447.49392305 318.17180793 449.48258344 317.32730103 451.47140503 C282.2655992 534.0386399 282.2655992 534.0386399 252 565 C251.2678125 565.7940625 250.535625 566.588125 249.78125 567.40625 C222.29655021 596.53182738 178.0313288 611.65010819 138.85681152 613.078125 C117.93239617 613.6743201 97.49892177 613.69862071 77 609 C75.16167278 608.60966577 73.32312909 608.22034964 71.484375 607.83203125 C44.97929011 602.05069694 19.79068736 591.73970903 -1 574 C-0.37583334 569.64365524 1.2675349 566.05905302 3.24609375 562.1796875 C3.57238266 561.52857498 3.89867157 560.87746246 4.23484802 560.20661926 C5.29630488 558.09294734 6.36660327 555.98390277 7.4375 553.875 C8.17951493 552.40356085 8.92121229 550.93196153 9.66259766 549.46020508 C13.69114854 541.47826531 17.75566725 533.51616439 21.97460938 525.6328125 C24.89428406 520.16144865 27.7079984 514.64072005 30.50390625 509.10546875 C31.73585143 506.67602645 32.96856676 504.24697632 34.20147705 501.81802368 C35.02249552 500.19526451 35.84003001 498.57073774 36.6539917 496.94442749 C37.80089943 494.65369717 38.9597577 492.36937882 40.12109375 490.0859375 C40.46757462 489.38587082 40.81405548 488.68580414 41.17103577 487.96452332 C43.65875919 483.11374694 43.65875919 483.11374694 47 482 C49.17321454 483.40727039 51.15416948 484.84850238 53.1875 486.4375 C63.38006926 494.01658996 74.24450001 499.27816766 86.25 503.375 C86.94577148 503.61379883 87.64154297 503.85259766 88.35839844 504.09863281 C106.07118952 509.80471143 128.61407086 511.33638458 146 504 C147.18722656 503.50242187 148.37445312 503.00484375 149.59765625 502.4921875 C168.54690654 494.02485664 178.71780395 477.69403426 188 460 C188.73669922 458.60974609 188.73669922 458.60974609 189.48828125 457.19140625 C191.79513071 452.49050684 192.14135031 450.24059846 191 445 C189.98428514 442.39858042 188.92676666 439.88181422 187.7734375 437.34375 C187.27093727 436.21371552 187.27093727 436.21371552 186.75828552 435.06085205 C186.02480651 433.41216598 185.28840923 431.76477587 184.54946899 430.11853027 C182.48634739 425.51870992 180.44857254 420.90768485 178.41015625 416.296875 C177.75496254 414.81613495 177.75496254 414.81613495 177.08653259 413.30548096 C171.87754318 401.50385602 166.8482666 389.62628841 161.8125 377.75 C154.12337877 359.630539 146.35733579 341.54714814 138.5 323.5 C130.75154225 305.70089074 123.08767267 287.86823915 115.5 270 C107.86812688 252.02880304 100.16323573 234.09149961 92.375 216.1875 C85.06113536 199.37240782 77.77865218 182.54478005 70.5625 165.6875 C70.1372403 164.69412628 69.71198059 163.70075256 69.27383423 162.67727661 C67.09189783 157.57963295 64.91093308 152.48157426 62.73046875 147.38330078 C57.84550421 135.96200095 52.95440202 124.54332977 48.0625 113.125 C47.56237396 111.95745178 47.06224792 110.78990356 46.54696655 109.5869751 C39.64791968 93.48284443 32.72298839 77.39008935 25.77615356 61.30651855 C19.02544984 45.67696252 12.28446403 30.04369125 5.625 14.375 C5.17794708 13.32543625 5.17794708 13.32543625 4.72186279 12.25466919 C3.90895036 10.3450908 3.09850168 8.43449024 2.2890625 6.5234375 C1.84256348 5.47075684 1.39606445 4.41807617 0.93603516 3.33349609 C0 1 0 1 0 0 Z " fill="#FEC1E7" transform="translate(744,850)"/>
</svg>
